# xmcd
#
# Track frame offsets:
# 150
# 13363
# 23033
# 35748
# 45365
# 57846
# 67707
# 80140
# 89009
# 101721
# 113022
# 126002
# 135776
# 147110
# 159420
# 171370
#
# Disc length: 2429 seconds
#
#
# Revision: 0
# Processed by: cddbd v1.5.2PL0 Copyright (c) Steve Scherf et al.
# Submitted via: FreeRIP 2.91 
#
DISCID=cf097b10
DTITLE=Magic Sam - An Introduction To Magic Sam
DYEAR=2007
DGENRE=Blues
TTITLE0=All Your Love
TTITLE1=Love Me With A Feeling
TTITLE2=Everything Gonna Be Alright
TTITLE3=Look Whatcha Done
TTITLE4=All Night Long
TTITLE5=All My Whole Life
TTITLE6=Easy Baby
TTITLE7=21 Days In Jail
TTITLE8=Love Me This Way (Previously Unreleased)
TTITLE9=Magic Rocker (Previously Unreleased)
TTITLE10=My Love Is Your Love
TTITLE11=Every Night About This Time
TTITLE12=Do The Camel Walk
TTITLE13=You Don't Have To Work
TTITLE14=She Belongs To Me
TTITLE15=Out Of Bad Luck
EXTD=
EXTT0=
EXTT1=
EXTT2=
EXTT3=
EXTT4=
EXTT5=
EXTT6=
EXTT7=
EXTT8=
EXTT9=
EXTT10=
EXTT11=
EXTT12=
EXTT13=
EXTT14=
EXTT15=
PLAYORDER=
